<svg width="16" height="16" viewBox="0 0 16 16" fill="none" xmlns="http://www.w3.org/2000/svg">
<g clip-path="url(#clip0_103_3183)">
<path d="M11.9214 12.8642C10.7488 13.6079 9.38851 14.0018 8.00002 13.9996C4.40535 13.9996 1.41469 11.4129 0.787354 7.99956C1.07404 6.4467 1.85511 5.02815 3.01402 3.95556L0.92802 1.87156L1.87135 0.928223L15.0707 14.1282L14.1274 15.0709L11.9207 12.8642H11.9214ZM3.95669 4.89956C3.05069 5.72328 2.41956 6.80541 2.14869 7.99956C2.35688 8.91053 2.77486 9.76032 3.36936 10.4813C3.96385 11.2023 4.71844 11.7745 5.57306 12.1524C6.42767 12.5304 7.35872 12.7036 8.29208 12.6583C9.22544 12.613 10.1353 12.3505 10.9494 11.8916L9.59735 10.5396C9.02181 10.9021 8.34015 11.0583 7.66418 10.9825C6.9882 10.9067 6.35805 10.6035 5.87707 10.1225C5.39609 9.64153 5.09284 9.01137 5.01706 8.3354C4.94128 7.65942 5.09748 6.97776 5.46002 6.40222L3.95669 4.89956ZM8.60935 9.55156L6.44802 7.39022C6.3294 7.69218 6.30148 8.02219 6.36769 8.33979C6.4339 8.65738 6.59137 8.94874 6.82077 9.17814C7.05017 9.40755 7.34153 9.56501 7.65912 9.63122C7.97672 9.69743 8.30673 9.66951 8.60869 9.55089L8.60935 9.55156ZM13.8714 11.0609L12.9174 10.1076C13.363 9.47242 13.6803 8.75635 13.8514 7.99956C13.6702 7.20604 13.3295 6.45765 12.8501 5.79989C12.3707 5.14212 11.7625 4.58871 11.0626 4.17329C10.3627 3.75788 9.58555 3.48913 8.77851 3.3834C7.97147 3.27766 7.15136 3.33714 6.36802 3.55822L5.31602 2.50622C6.14735 2.17956 7.05335 1.99956 8.00002 1.99956C11.5947 1.99956 14.5854 4.58622 15.2127 7.99956C15.0084 9.11002 14.5493 10.1579 13.8714 11.0609ZM7.81535 5.00489C8.23969 4.97866 8.66476 5.04293 9.06238 5.19343C9.46 5.34393 9.82109 5.57723 10.1217 5.87786C10.4223 6.17848 10.6556 6.53957 10.8061 6.93719C10.9566 7.33481 11.0209 7.75988 10.9947 8.18422L7.81469 5.00489H7.81535Z" fill="#121212"/>
</g>
<defs>
<clipPath id="clip0_103_3183">
<rect width="16" height="16" fill="white" transform="translate(0 -0.000488281)"/>
</clipPath>
</defs>
</svg>
