<svg width="17" height="17" viewBox="0 0 17 17" fill="none" xmlns="http://www.w3.org/2000/svg">
<g clip-path="url(#clip0_103_8072)">
<path d="M8.21267 2.17969C11.8073 2.17969 14.798 4.76635 15.4253 8.17969C14.7987 11.593 11.8073 14.1797 8.21267 14.1797C4.618 14.1797 1.62733 11.593 1 8.17969C1.62667 4.76635 4.618 2.17969 8.21267 2.17969ZM8.21267 12.8464C9.57231 12.8461 10.8916 12.3842 11.9546 11.5365C13.0176 10.6887 13.7613 9.5052 14.064 8.17969C13.7602 6.85522 13.016 5.67302 11.9531 4.82637C10.8902 3.97972 9.57154 3.51871 8.21267 3.51871C6.8538 3.51871 5.53513 3.97972 4.47225 4.82637C3.40937 5.67302 2.66518 6.85522 2.36133 8.17969C2.66406 9.5052 3.40778 10.6887 4.47076 11.5365C5.53374 12.3842 6.85302 12.8461 8.21267 12.8464ZM8.21267 11.1797C7.41702 11.1797 6.65396 10.8636 6.09135 10.301C5.52874 9.7384 5.21267 8.97534 5.21267 8.17969C5.21267 7.38404 5.52874 6.62098 6.09135 6.05837C6.65396 5.49576 7.41702 5.17969 8.21267 5.17969C9.00832 5.17969 9.77138 5.49576 10.334 6.05837C10.8966 6.62098 11.2127 7.38404 11.2127 8.17969C11.2127 8.97534 10.8966 9.7384 10.334 10.301C9.77138 10.8636 9.00832 11.1797 8.21267 11.1797ZM8.21267 9.84635C8.65469 9.84635 9.07862 9.67076 9.39118 9.3582C9.70374 9.04564 9.87933 8.62172 9.87933 8.17969C9.87933 7.73766 9.70374 7.31374 9.39118 7.00118C9.07862 6.68862 8.65469 6.51302 8.21267 6.51302C7.77064 6.51302 7.34672 6.68862 7.03416 7.00118C6.7216 7.31374 6.546 7.73766 6.546 8.17969C6.546 8.62172 6.7216 9.04564 7.03416 9.3582C7.34672 9.67076 7.77064 9.84635 8.21267 9.84635Z" fill="#898989"/>
</g>
<defs>
<clipPath id="clip0_103_8072">
<rect width="16" height="16" fill="white" transform="translate(0.212646 0.179688)"/>
</clipPath>
</defs>
</svg>
